<svg xmlns="http://www.w3.org/2000/svg" viewBox="0 0 800 400" preserveAspectRatio="xMidYMid slice">
  <defs>
    <linearGradient id="devops-grad" x1="0%" y1="0%" x2="100%" y2="100%">
      <stop offset="0%" stop-color="#0b1724"/>
      <stop offset="100%" stop-color="#0f2a24"/>
    </linearGradient>
  </defs>
  <rect width="800" height="400" fill="url(#devops-grad)"/>
  <path d="M0 270 Q140 220 280 255 T560 240 T800 260 L800 400 L0 400 Z" fill="#0f3a2c" opacity="0.65"/>
  <path d="M0 230 Q170 190 340 220 T700 200 T800 215 L800 400 L0 400 Z" fill="#15803d" opacity="0.4"/>
  <path d="M0 200 Q200 160 420 190 T800 180 L800 400 L0 400 Z" fill="#fbbf24" opacity="0.18"/>
  <rect x="520" y="70" width="120" height="70" rx="10" fill="none" stroke="#fbbf24" stroke-width="3" opacity="0.8"/>
  <path d="M120 90 h90 v50 h-90 z" fill="none" stroke="#22c55e" stroke-width="3" opacity="0.8"/>
  <circle cx="165" cy="115" r="7" fill="#fbbf24" opacity="0.9"/>
  <circle cx="580" cy="105" r="7" fill="#22c55e" opacity="0.9"/>
</svg>
