<svg xmlns="http://www.w3.org/2000/svg" viewBox="0 0 800 400" preserveAspectRatio="xMidYMid slice">
  <defs>
    <linearGradient id="web-grad" x1="0%" y1="0%" x2="100%" y2="100%">
      <stop offset="0%" stop-color="#0f172a"/>
      <stop offset="100%" stop-color="#1e1b4b"/>
    </linearGradient>
  </defs>
  <rect width="800" height="400" fill="url(#web-grad)"/>
  <path d="M0 260 Q160 210 320 250 T640 230 T800 250 L800 400 L0 400 Z" fill="#312e81" opacity="0.6"/>
  <path d="M0 220 Q190 180 380 210 T760 190 T800 205 L800 400 L0 400 Z" fill="#7c3aed" opacity="0.35"/>
  <path d="M0 190 Q210 150 420 180 T800 170 L800 400 L0 400 Z" fill="#22d3ee" opacity="0.18"/>
  <rect x="90" y="70" width="110" height="70" rx="10" fill="none" stroke="#22d3ee" stroke-width="3" opacity="0.7"/>
  <rect x="560" y="60" width="140" height="90" rx="12" fill="none" stroke="#7c3aed" stroke-width="3" opacity="0.7"/>
  <circle cx="590" cy="105" r="8" fill="#22d3ee" opacity="0.9"/>
  <circle cx="150" cy="105" r="6" fill="#7c3aed" opacity="0.9"/>
</svg>
